<?xml version="1.0" standalone="no"?>
<!DOCTYPE svg PUBLIC "-//W3C//DTD SVG 20010904//EN"
 "http://www.w3.org/TR/2001/REC-SVG-20010904/DTD/svg10.dtd">
<svg version="1.0" xmlns="http://www.w3.org/2000/svg"
 width="600.000000pt" height="500.000000pt" viewBox="0 0 600.000000 500.000000"
 preserveAspectRatio="xMidYMid meet">

<g transform="translate(0.000000,500.000000) scale(0.100000,-0.100000)"
fill="#000000" stroke="none">
<path d="M2850 3524 c-284 -54 -545 -235 -679 -469 l-23 -40 28 35 c54 69 153
160 221 203 134 87 273 127 440 127 284 0 522 -119 683 -344 l54 -76 1121 1
c616 1 1111 3 1100 5 -11 2 -114 8 -229 14 -115 5 -327 17 -470 25 -144 8
-385 22 -536 30 -771 43 -711 37 -734 75 -34 59 -180 202 -261 255 -99 66
-186 107 -292 136 -63 18 -109 23 -238 25 -88 1 -171 0 -185 -2z"/>
<path d="M982 2788 c-13 -7 -27 -27 -34 -51 -17 -57 2 -86 77 -115 84 -32 90
-36 93 -66 5 -37 -14 -56 -55 -56 -36 0 -83 36 -83 65 0 8 -9 15 -20 15 -18 0
-20 -7 -20 -60 0 -52 2 -60 19 -60 11 0 21 5 23 11 3 9 9 9 25 0 12 -6 41 -11
64 -11 60 0 99 37 99 96 0 58 -22 80 -105 107 -57 18 -71 26 -73 45 -2 13 2
30 8 38 26 30 120 6 120 -32 0 -8 9 -14 20 -14 17 0 20 7 20 50 0 43 -3 50
-20 50 -11 0 -20 -4 -20 -10 0 -6 -9 -6 -26 0 -33 13 -83 12 -112 -2z"/>
<path d="M1207 2780 c3 -11 14 -20 24 -20 18 0 19 -9 19 -130 0 -129 0 -130
-23 -130 -16 0 -23 -6 -23 -20 0 -18 7 -20 58 -20 51 0 58 2 58 20 0 11 -7 20
-15 20 -13 0 -15 20 -15 122 0 67 2 119 4 117 3 -3 29 -67 59 -144 51 -129 56
-138 66 -115 6 14 33 81 60 150 l50 125 0 -127 c1 -107 -1 -128 -14 -128 -8 0
-15 -9 -15 -20 0 -18 7 -20 60 -20 53 0 60 2 60 20 0 13 -7 20 -20 20 -19 0
-20 7 -20 130 0 123 1 130 20 130 13 0 20 7 20 20 0 18 -7 20 -59 20 l-60 0
-42 -110 c-24 -60 -46 -110 -49 -110 -4 0 -25 48 -47 108 l-40 107 -61 3 c-57
3 -60 2 -55 -18z"/>
<path d="M1640 2780 c0 -13 7 -20 20 -20 19 0 20 -7 20 -130 0 -123 -1 -130
-20 -130 -13 0 -20 -7 -20 -20 0 -18 7 -20 70 -20 62 0 70 2 70 19 0 13 -8 21
-22 23 -20 3 -23 10 -26 61 -3 57 -3 57 26 57 26 0 31 -7 65 -80 35 -78 37
-80 71 -80 29 0 36 4 36 20 0 13 -7 20 -18 20 -12 0 -27 19 -45 53 -15 30 -27
57 -27 60 0 3 14 19 30 35 42 42 41 91 -1 126 -28 24 -38 26 -130 26 -92 0
-99 -1 -99 -20z m194 -36 c22 -21 20 -61 -3 -74 -11 -5 -38 -10 -60 -10 l-41
0 0 50 0 50 44 0 c27 0 51 -6 60 -16z"/>
<path d="M2077 2793 c-14 -13 -6 -33 13 -33 19 0 20 -7 20 -129 0 -122 -1
-129 -21 -134 -43 -11 -14 -32 49 -35 57 -3 62 -1 62 18 0 13 -7 20 -20 20
-18 0 -20 7 -20 60 l0 60 75 0 75 0 0 -60 c0 -53 -2 -60 -20 -60 -13 0 -20 -7
-20 -20 0 -18 7 -20 65 -20 58 0 65 2 65 20 0 13 -7 20 -20 20 -19 0 -20 7
-20 130 0 123 1 130 20 130 13 0 20 7 20 20 0 18 -7 20 -65 20 -58 0 -65 -2
-65 -20 0 -13 7 -20 20 -20 17 0 20 -7 20 -50 l0 -50 -75 0 -75 0 0 50 c0 43
3 50 20 50 13 0 20 7 20 20 0 18 -7 20 -58 20 -32 0 -62 -3 -65 -7z"/>
<path d="M2430 2780 c0 -13 7 -20 19 -20 19 0 20 -9 23 -130 3 -129 3 -130
-19 -130 -16 0 -23 -6 -23 -20 0 -19 7 -20 140 -20 l140 0 0 50 c0 43 -3 50
-20 50 -16 0 -20 -7 -20 -30 l0 -30 -75 0 -75 0 0 55 0 55 65 0 c58 0 65 2 65
20 0 18 -7 20 -65 20 l-65 0 0 55 0 55 75 0 75 0 0 -30 c0 -23 4 -30 20 -30
17 0 20 7 20 50 l0 50 -140 0 c-133 0 -140 -1 -140 -20z"/>
<path d="M2820 2780 c0 -11 7 -20 15 -20 8 0 15 -3 15 -7 0 -5 -19 -63 -41
-130 -38 -111 -44 -123 -65 -123 -17 0 -24 -6 -24 -20 0 -18 7 -20 70 -20 63
0 70 2 70 20 0 13 -7 20 -20 20 -23 0 -24 5 -9 49 11 30 12 31 74 31 58 0 63
-2 69 -24 3 -13 9 -31 12 -40 4 -12 0 -16 -15 -16 -14 0 -21 -6 -21 -20 0 -18
7 -20 65 -20 58 0 65 2 65 20 0 13 -7 20 -20 20 -11 0 -20 2 -20 3 0 2 -20 61
-45 130 -41 118 -43 127 -25 127 13 0 20 7 20 20 0 18 -7 20 -85 20 -78 0 -85
-2 -85 -20z m109 -82 c12 -34 21 -66 21 -70 0 -4 -20 -8 -45 -8 -25 0 -45 4
-45 8 0 11 41 132 45 132 2 0 13 -28 24 -62z"/>
<path d="M3080 2780 c0 -13 7 -20 19 -20 15 0 29 -25 65 -117 25 -65 50 -133
57 -150 8 -25 17 -33 34 -33 24 0 39 32 120 253 17 48 17 48 58 45 37 -3 43
-8 88 -73 45 -64 49 -75 49 -127 0 -54 -2 -58 -23 -58 -16 0 -23 -6 -23 -20 0
-18 7 -20 73 -20 66 0 73 2 73 20 0 15 -7 20 -25 20 -24 0 -25 3 -25 57 0 51
5 64 48 130 35 55 53 73 70 73 15 0 22 6 22 20 0 18 -7 20 -65 20 -58 0 -65
-2 -65 -20 0 -11 7 -20 15 -20 8 0 15 -3 15 -6 0 -12 -55 -94 -62 -94 -7 0
-68 84 -68 94 0 3 9 6 20 6 13 0 20 7 20 20 0 20 -5 20 -132 18 -117 -3 -133
-5 -136 -20 -2 -13 3 -18 17 -18 12 0 21 -3 21 -7 0 -11 -72 -197 -80 -206 -3
-4 -25 41 -47 100 -38 100 -40 108 -22 111 11 2 19 12 19 23 0 17 -7 19 -65
19 -58 0 -65 -2 -65 -20z"/>
<path d="M3900 2780 c0 -13 7 -20 20 -20 19 0 20 -7 20 -130 0 -123 -1 -130
-20 -130 -13 0 -20 -7 -20 -20 0 -18 7 -20 55 -20 48 0 55 2 55 20 0 11 -7 20
-15 20 -13 0 -15 21 -15 128 l1 127 57 -147 c31 -81 60 -144 63 -140 4 4 32
70 63 147 l55 140 0 -127 c1 -119 0 -128 -18 -128 -14 0 -18 -5 -14 -20 5 -17
14 -20 64 -20 52 0 59 2 59 20 0 13 -7 20 -20 20 -19 0 -20 7 -20 130 0 123 1
130 20 130 13 0 20 7 20 20 0 18 -7 20 -59 20 l-59 0 -42 -110 c-24 -60 -46
-110 -50 -110 -4 0 -25 48 -47 108 l-40 107 -56 3 c-52 3 -57 1 -57 -18z"/>
<path d="M4410 2784 c0 -9 9 -18 20 -21 11 -3 20 -7 20 -8 0 -4 -74 -209 -85
-237 -4 -10 -16 -18 -26 -18 -12 0 -19 -7 -19 -20 0 -18 7 -20 65 -20 58 0 65
2 65 20 0 14 -7 20 -21 20 -15 0 -19 4 -15 16 3 9 9 27 12 40 6 22 11 24 70
24 60 0 65 -2 74 -26 15 -38 12 -54 -8 -54 -11 0 -18 -8 -19 -20 -2 -19 3 -21
65 -18 52 2 67 6 67 18 0 8 -8 17 -19 20 -15 4 -31 37 -62 125 -24 66 -43 123
-43 126 -1 4 8 9 19 12 11 3 20 12 20 21 0 13 -14 16 -90 16 -76 0 -90 -3 -90
-16z m116 -94 l22 -70 -50 0 c-36 0 -49 4 -45 13 2 6 13 38 23 70 10 31 20 57
23 57 3 0 16 -32 27 -70z"/>
<path d="M4780 2778 c-18 -13 -42 -35 -53 -50 -24 -33 -33 -114 -18 -161 11
-33 60 -86 93 -101 10 -5 10 -7 1 -12 -22 -10 -15 -36 7 -29 12 4 49 -3 86
-17 56 -20 66 -21 74 -8 15 24 12 27 -25 34 -44 9 -44 19 0 34 127 46 137 249
15 313 -51 27 -138 25 -180 -3z m150 -33 c76 -39 81 -178 8 -229 -36 -25 -101
-20 -137 10 -116 97 -4 288 129 219z"/>
<path d="M1833 2323 c26 -4 27 -6 27 -74 0 -44 4 -68 10 -64 6 3 10 35 10 70
0 62 1 64 28 68 15 2 -2 4 -38 4 -36 0 -53 -2 -37 -4z"/>
<path d="M1958 2255 l4 -75 51 2 52 2 -47 3 c-45 4 -48 6 -48 33 0 27 3 29 43
33 l42 4 -42 1 c-40 2 -43 4 -43 31 0 28 3 30 43 34 l42 4 -50 1 -50 2 3 -75z"/>
<path d="M2112 2313 c-40 -34 -30 -103 18 -123 31 -13 80 -7 80 11 0 6 -7 6
-20 -1 -47 -25 -100 20 -86 73 8 32 56 53 85 37 12 -6 21 -7 21 -1 0 25 -70
28 -98 4z"/>
<path d="M2253 2255 c0 -50 2 -67 6 -45 6 34 8 35 53 38 l47 3 4 -38 c2 -21 4
-2 4 42 0 44 -2 63 -4 43 l-4 -38 -49 0 -49 0 -4 38 c-2 20 -4 1 -4 -43z"/>
<path d="M2429 2323 c-2 -16 0 -138 2 -143 1 -3 5 22 8 55 l6 60 45 -57 c25
-31 48 -57 53 -57 4 -1 7 33 7 75 0 49 -4 73 -10 69 -6 -4 -9 -29 -7 -56 2
-27 0 -49 -4 -49 -3 0 -26 25 -49 55 -43 55 -49 61 -51 48z"/>
<path d="M2603 2255 c0 -44 2 -61 4 -37 2 23 2 59 0 80 -2 20 -4 1 -4 -43z"/>
<path d="M2675 2305 c-14 -13 -25 -36 -25 -50 0 -32 41 -75 73 -75 13 0 32 7
43 15 23 17 14 19 -20 4 -47 -22 -100 35 -76 81 15 28 56 43 81 30 11 -6 19
-7 19 -1 0 5 -7 12 -16 15 -30 12 -55 6 -79 -19z"/>
<path d="M2851 2312 c-27 -51 -59 -132 -51 -132 5 0 12 9 15 20 5 16 15 20 50
20 35 0 45 -4 50 -20 3 -11 11 -20 17 -20 11 0 12 -4 -27 83 -16 37 -33 67
-37 67 -4 0 -12 -8 -17 -18z m34 -38 c19 -47 20 -44 -19 -44 l-34 0 15 40 c9
22 18 40 19 40 2 0 11 -16 19 -36z"/>
<path d="M2972 2258 l-2 -78 48 1 47 2 -40 6 -40 6 -6 70 -5 70 -2 -77z"/>
<path d="M3158 2319 c-33 -19 -21 -48 27 -69 25 -11 45 -26 45 -34 0 -21 -43
-31 -69 -16 -12 6 -21 7 -21 1 0 -21 68 -29 88 -9 7 7 12 22 12 33 0 17 -9 25
-40 34 -21 6 -42 17 -46 23 -12 18 27 39 61 33 23 -5 26 -4 15 4 -19 13 -50
13 -72 0z"/>
<path d="M3280 2255 l0 -75 53 2 52 1 -45 6 c-40 5 -45 9 -48 33 -3 25 0 27
40 31 l43 4 -43 1 c-41 2 -43 3 -40 30 3 24 8 28 48 33 l45 6 -52 1 -53 2 0
-75z"/>
<path d="M3420 2255 c0 -43 4 -75 10 -75 6 0 10 11 10 25 0 35 41 34 69 -1 23
-29 28 -25 11 7 -8 15 -7 23 5 35 35 36 -2 84 -65 84 l-40 0 0 -75z m78 59
c16 -5 22 -14 22 -34 0 -29 -15 -40 -56 -40 -21 0 -24 4 -24 40 0 42 8 47 58
34z"/>
<path d="M3560 2323 c0 -18 60 -143 69 -143 5 0 22 34 39 75 38 92 28 99 -12
9 l-29 -65 -25 58 c-24 58 -42 87 -42 66z"/>
<path d="M3733 2255 c0 -44 2 -61 4 -37 2 23 2 59 0 80 -2 20 -4 1 -4 -43z"/>
<path d="M3806 2309 c-46 -36 -32 -106 25 -124 25 -8 69 2 69 15 0 6 -10 5
-25 -2 -51 -23 -108 50 -70 92 24 26 50 33 75 20 11 -6 20 -7 20 -1 0 11 -24
21 -49 21 -10 0 -30 -9 -45 -21z"/>
<path d="M3948 2255 l-3 -75 55 2 55 2 -47 3 c-45 4 -48 6 -48 33 0 27 3 29
43 33 l42 4 -42 1 c-40 2 -43 4 -43 31 0 28 2 30 48 34 l47 3 -52 2 -51 2 -4
-75z"/>
<path d="M4092 2318 c-25 -25 -13 -48 33 -68 48 -21 54 -30 29 -51 -12 -10
-22 -10 -45 -2 -16 6 -29 8 -29 3 0 -21 69 -27 88 -8 25 25 13 48 -33 68 -25
11 -45 23 -45 28 0 19 30 34 56 28 17 -5 23 -3 19 4 -9 14 -58 13 -73 -2z"/>
<path d="M170 2134 c8 -2 150 -10 315 -19 638 -32 1667 -93 1670 -98 0 -1 20
-28 43 -59 159 -216 410 -358 685 -389 230 -25 462 34 660 169 95 65 212 185
270 278 20 33 6 22 -66 -50 -130 -130 -254 -199 -421 -232 -109 -22 -323 -14
-414 15 -187 61 -354 186 -452 339 l-33 52 -1136 -1 c-625 -1 -1129 -3 -1121
-5z"/>
</g>
</svg>
